<svg xmlns="http://www.w3.org/2000/svg" width="85" height="85" viewBox="0 0 85 85">
  <g id="Group_211" data-name="Group 211" transform="translate(5 -176)">
    <circle id="Ellipse_81" data-name="Ellipse 81" cx="5" cy="5" r="5" transform="translate(70 176)" fill="#fff"/>
    <circle id="Ellipse_85" data-name="Ellipse 85" cx="5" cy="5" r="5" transform="translate(70 201)" fill="#fff"/>
    <circle id="Ellipse_89" data-name="Ellipse 89" cx="5" cy="5" r="5" transform="translate(70 226)" fill="#fff"/>
    <circle id="Ellipse_93" data-name="Ellipse 93" cx="5" cy="5" r="5" transform="translate(70 251)" fill="#fff"/>
    <circle id="Ellipse_82" data-name="Ellipse 82" cx="5" cy="5" r="5" transform="translate(45 176)" fill="#fff"/>
    <circle id="Ellipse_86" data-name="Ellipse 86" cx="5" cy="5" r="5" transform="translate(45 201)" fill="#fff"/>
    <circle id="Ellipse_90" data-name="Ellipse 90" cx="5" cy="5" r="5" transform="translate(45 226)" fill="#fff"/>
    <circle id="Ellipse_94" data-name="Ellipse 94" cx="5" cy="5" r="5" transform="translate(45 251)" fill="#fff"/>
    <circle id="Ellipse_83" data-name="Ellipse 83" cx="5" cy="5" r="5" transform="translate(20 176)" fill="#fff"/>
    <circle id="Ellipse_87" data-name="Ellipse 87" cx="5" cy="5" r="5" transform="translate(20 201)" fill="#fff"/>
    <circle id="Ellipse_91" data-name="Ellipse 91" cx="5" cy="5" r="5" transform="translate(20 226)" fill="#fff"/>
    <circle id="Ellipse_95" data-name="Ellipse 95" cx="5" cy="5" r="5" transform="translate(20 251)" fill="#fff"/>
    <circle id="Ellipse_84" data-name="Ellipse 84" cx="5" cy="5" r="5" transform="translate(-5 176)" fill="#fff"/>
    <circle id="Ellipse_88" data-name="Ellipse 88" cx="5" cy="5" r="5" transform="translate(-5 201)" fill="#fff"/>
    <circle id="Ellipse_92" data-name="Ellipse 92" cx="5" cy="5" r="5" transform="translate(-5 226)" fill="#fff"/>
    <circle id="Ellipse_96" data-name="Ellipse 96" cx="5" cy="5" r="5" transform="translate(-5 251)" fill="#fff"/>
  </g>
</svg>
