<svg height="512pt" viewBox="-89 0 512 512" width="512pt" xmlns="http://www.w3.org/2000/svg"><path d="m302.566406 69.117188c-2.433594-3.355469-7.121094-4.101563-10.472656-1.667969-3.355469 2.429687-4.101562 7.121093-1.667969 10.472656 18.90625 26.070313 28.902344 56.929687 28.902344 89.242187 0 31.007813-9.171875 61.449219-26.519531 88.039063-25.652344 39.316406-42.761719 68.222656-46.722656 110.148437-.472657 4.984376-3.910157 8.964844-8.46875 10.25-.300782.050782-.601563.125-.890626.214844-.738281.144532-1.503906.222656-2.285156.222656h-134.554687c-.78125 0-1.546875-.078124-2.289063-.222656-.289062-.089844-.585937-.160156-.890625-.214844-4.554687-1.285156-7.996093-5.265624-8.464843-10.25-3.960938-41.925781-21.070313-70.832031-46.722657-110.148437-17.351562-26.589844-26.519531-57.03125-26.519531-88.039063 0-83.902343 68.261719-152.164062 152.164062-152.164062 38.722657 0 75.613282 14.554688 103.886719 40.980469 3.027344 2.828125 7.769531 2.667969 10.601563-.359375 2.828125-3.023438 2.667968-7.769532-.359375-10.601563-31.058594-29.03125-71.589844-45.019531-114.128907-45.019531-92.175781 0-167.164062 74.988281-167.164062 167.164062 0 33.925782 10.011719 67.203126 28.957031 96.234376 24.429688 37.445312 40.714844 64.867187 44.351563 103.363281.902344 9.535156 6.605468 17.457031 14.597656 21.460937v70.390625c0 9.320313 5.875 17.296875 14.117188 20.414063.734374 18.308594 15.855468 32.972656 34.339843 32.972656h61.601563c18.484375 0 33.605468-14.664062 34.339844-32.972656 8.242187-3.117188 14.117187-11.089844 14.117187-20.414063v-70.390625c7.992187-4.003906 13.699219-11.921875 14.597656-21.460937 3.636719-38.496094 19.921875-65.917969 44.351563-103.359375 18.945312-29.035156 28.957031-62.3125 28.957031-96.238282 0-35.496093-10.980469-69.402343-31.761719-98.046874zm-152.667968 351.058593h81.523437v13.683594h-128.515625v-13.683594h16.996094c4.144531 0 7.5-3.359375 7.5-7.5 0-4.144531-3.355469-7.5-7.5-7.5h-16.996094v-14.136719h128.515625v14.136719h-81.519531c-4.144532 0-7.5 3.355469-7.5 7.5 0 4.140625 3.355468 7.5 7.496094 7.5zm75.070312 45.246094c-.046875-.003906-.089844-.003906-.136719-.003906-.03125 0-.0625 0-.09375 0-.105469 0-.210937.003906-.316406.011719h-114.515625c-.105469-.003907-.210938-.007813-.316406-.011719-.078125 0-.160156 0-.238282 0-3.585937-.191407-6.449218-3.171875-6.449218-6.804688v-9.753906h128.519531v9.753906c0 3.636719-2.863281 6.617188-6.453125 6.808594zm-27.003906 31.578125h-61.601563c-9.730469 0-17.808593-7.210938-19.167969-16.570312h99.9375c-1.359374 9.359374-9.4375 16.570312-19.167968 16.570312zm0 0"/><path d="m249.503906 210.3125c.261719-.921875 1.144532-1.566406 2.144532-1.566406h6.074218c9.515625 0 17.257813-7.738282 17.257813-17.253906v-11.117188c0-9.511719-7.742188-17.253906-17.257813-17.253906h-6.496094c-.980468 0-1.859374-.628906-2.132812-1.527344-1.703125-5.621094-3.996094-11.097656-6.820312-16.269531-.464844-.851563-.300782-1.933594.398437-2.636719l4.660156-4.65625c3.257813-3.261719 5.054688-7.59375 5.054688-12.203125s-1.796875-8.941406-5.054688-12.199219l-7.863281-7.863281c-3.257812-3.257813-7.589844-5.050781-12.199219-5.050781s-8.941406 1.792968-12.203125 5.050781l-4.65625 4.660156c-.699218.699219-1.785156.867188-2.636718.398438-5.167969-2.820313-10.640626-5.117188-16.269532-6.820313-.898437-.273437-1.527344-1.152344-1.527344-2.132812v-6.496094c0-9.515625-7.738281-17.257812-17.253906-17.257812h-11.117187c-9.515625 0-17.253907 7.742187-17.253907 17.257812v6.074219c0 1-.648437 1.882812-1.566406 2.144531-5.800781 1.648438-11.449218 3.921875-16.78125 6.753906-.832031.441406-1.898437.265625-2.589844-.425781l-4.152343-4.15625c-3.261719-3.257813-7.59375-5.054687-12.203125-5.054687s-8.941406 1.796874-12.199219 5.054687l-7.863281 7.863281c-3.257813 3.257813-5.054688 7.589844-5.054688 12.199219s1.796875 8.941406 5.054688 12.203125l3.730468 3.726562c.710938.710938.875 1.796876.398438 2.644532-3.058594 5.441406-5.527344 11.222656-7.332031 17.175781-.273438.910156-1.175781 1.542969-2.1875 1.542969h-5c-9.515625 0-17.257813 7.742187-17.257813 17.253906v11.117188c0 9.515624 7.742188 17.253906 17.257813 17.253906h4.609375c1.011718 0 1.898437.636718 2.15625 1.550781 1.75 6.152344 4.191406 12.117187 7.265625 17.734375.449219.824219.273437 1.894531-.429688 2.597656l-3.210937 3.210938c-3.257813 3.257812-5.054688 7.589844-5.054688 12.199218 0 4.609376 1.796875 8.941407 5.054688 12.203126l7.859375 7.859374c3.261719 3.257813 7.59375 5.054688 12.203125 5.054688s8.941406-1.796875 12.199218-5.054688l3.214844-3.210937c.699219-.703125 1.769532-.878906 2.59375-.425781 5.617188 3.070312 11.585938 5.515625 17.738282 7.261718.910156.257813 1.546874 1.144532 1.546874 2.15625v4.613282c0 9.515625 7.738282 17.253906 17.253907 17.253906h11.117187c9.515625 0 17.253906-7.742188 17.253906-17.253906v-5.003906c0-1.011719.632813-1.910157 1.542969-2.1875 5.957031-1.804688 11.734375-4.273438 17.175781-7.332032.847657-.472656 1.933594-.308594 2.644532.398438l3.726562 3.730468c3.261719 3.257813 7.59375 5.054688 12.203125 5.054688s8.941407-1.796875 12.199219-5.054688l7.863281-7.859374c3.257813-3.261719 5.054688-7.59375 5.054688-12.203126 0-4.609374-1.796875-8.941406-5.054688-12.199218l-4.152343-4.15625c-.695313-.691406-.871094-1.757813-.429688-2.589844 2.835938-5.332031 5.105469-10.980469 6.753906-16.78125zm-14.429687-4.101562c-1.359375 4.785156-3.234375 9.445312-5.570313 13.851562-3.5625 6.703125-2.328125 14.832031 3.066406 20.226562l4.152344 4.15625c.882813.878907.882813 2.308594.003906 3.1875l-7.863281 7.859376c-.878906.878906-2.308593.878906-3.1875 0l-3.730469-3.726563c-5.445312-5.449219-13.917968-6.628906-20.601562-2.871094-4.492188 2.527344-9.261719 4.5625-14.179688 6.054688-7.175781 2.175781-12.1875 8.976562-12.1875 16.542969v5c0 1.242187-1.011718 2.253906-2.253906 2.253906h-11.117187c-1.242188 0-2.253907-1.011719-2.253907-2.253906v-4.613282c0-7.683594-5.121093-14.503906-12.449218-16.585937-5.078125-1.441407-10.003906-3.457031-14.640625-5.992188-2.546875-1.394531-5.355469-2.070312-8.148438-2.070312-4.480469 0-8.9375 1.738281-12.246093 5.050781l-3.214844 3.210938c-.546875.546874-1.167969.660156-1.59375.660156-.425782 0-1.046875-.113282-1.59375-.660156l-7.863282-7.863282c-.878906-.878906-.878906-2.308594 0-3.1875l3.210938-3.210937c5.382812-5.378907 6.609375-13.769531 2.984375-20.398438-2.535156-4.636719-4.554687-9.5625-5.996094-14.640625-2.082031-7.328125-8.902343-12.449218-16.585937-12.449218h-4.613282c-1.242187 0-2.253906-1.011719-2.253906-2.253907v-11.117187c0-1.242188 1.011719-2.253906 2.253906-2.253906h5.003907c7.5625 0 14.367187-5.011719 16.542969-12.1875 1.488281-4.914063 3.523437-9.6875 6.050781-14.179688 3.757812-6.683594 2.578125-15.15625-2.867188-20.601562l-3.730469-3.730469c-.878906-.878907-.878906-2.308594 0-3.1875l7.863282-7.863281c.878906-.875 2.308594-.878907 3.1875 0l4.152344 4.15625c5.398437 5.394531 13.523437 6.628906 20.230468 3.066406 4.402344-2.335938 9.0625-4.210938 13.847656-5.570313 7.339844-2.085937 12.464844-8.902343 12.464844-16.578125v-6.074218c0-1.242188 1.011719-2.253907 2.257813-2.253907h11.117187c1.242188 0 2.253906 1.011719 2.253906 2.253907v6.496093c0 7.65625 4.894532 14.285157 12.179688 16.492188 4.644531 1.40625 9.160156 3.300781 13.425781 5.628906 6.65625 3.636719 15.058594 2.417969 20.433594-2.957031l4.660156-4.660156c.878907-.878907 2.308594-.878907 3.1875 0l7.859375 7.863281c.878906.878906.878906 2.308593 0 3.1875l-4.65625 4.65625c-5.375 5.378906-6.59375 13.78125-2.960937 20.433593 2.332031 4.269532 4.226562 8.789063 5.632812 13.429688 2.207031 7.285156 8.832031 12.175781 16.488281 12.175781h6.496094c1.242188 0 2.253906 1.015625 2.253906 2.257813v11.117187c0 1.242188-1.011718 2.253907-2.253906 2.253907h-6.074218c-7.671876.003906-14.488282 5.128906-16.574219 12.46875zm0 0"/><path d="m167.164062 131.230469c-30.164062 0-54.703124 24.539062-54.703124 54.703125 0 30.164062 24.539062 54.707031 54.703124 54.707031 30.164063 0 54.703126-24.542969 54.703126-54.707031 0-30.164063-24.539063-54.703125-54.703126-54.703125zm0 94.410156c-21.894531 0-39.703124-17.8125-39.703124-39.707031 0-21.894532 17.8125-39.703125 39.703124-39.703125 21.890626 0 39.703126 17.808593 39.703126 39.703125 0 21.894531-17.808594 39.707031-39.703126 39.707031zm0 0"/></svg>