<?xml version="1.0" encoding="iso-8859-1"?>
<!-- Generator: Adobe Illustrator 19.0.0, SVG Export Plug-In . SVG Version: 6.00 Build 0)  -->
<svg version="1.1" id="Capa_1" xmlns="http://www.w3.org/2000/svg" xmlns:xlink="http://www.w3.org/1999/xlink" x="0px" y="0px"
	 viewBox="0 0 425.6 425.6" style="enable-background:new 0 0 425.6 425.6;" xml:space="preserve">
<g>
	<g>
		<g>
			<path d="M382.933,175.467H425.6C422.4,107.093,388.693,46.933,337.6,8l-30.4,30.4C350.507,69.44,379.627,118.933,382.933,175.467
				z"/>
			<path d="M118.507,38.507L88,8C36.907,46.933,3.2,107.093,0,175.467h42.667C45.973,118.933,75.093,69.44,118.507,38.507z"/>
			<path d="M340.8,186.133c0-65.6-34.88-120.32-96-134.827V36.8c0-17.707-14.293-32-32-32s-32,14.293-32,32v14.507
				c-61.12,14.507-96,69.227-96,134.827V292.8l-42.667,42.667V356.8h341.333v-21.333L340.8,292.8V186.133z"/>
			<path d="M212.8,420.8L212.8,420.8c2.987,0,5.867-0.32,8.64-0.853c13.867-2.88,25.28-12.48,30.72-25.173
				c2.133-5.12,3.307-10.667,3.307-16.64h-85.333C170.133,401.707,189.227,420.8,212.8,420.8z"/>
		</g>
	</g>
</g>
<g>
</g>
<g>
</g>
<g>
</g>
<g>
</g>
<g>
</g>
<g>
</g>
<g>
</g>
<g>
</g>
<g>
</g>
<g>
</g>
<g>
</g>
<g>
</g>
<g>
</g>
<g>
</g>
<g>
</g>
</svg>
