<?xml version="1.0" encoding="iso-8859-1"?>
<!-- Generator: Adobe Illustrator 19.0.0, SVG Export Plug-In . SVG Version: 6.00 Build 0)  -->
<svg version="1.1" id="Capa_1" xmlns="http://www.w3.org/2000/svg" xmlns:xlink="http://www.w3.org/1999/xlink" x="0px" y="0px"
	 viewBox="0 0 426.667 426.667" style="enable-background:new 0 0 426.667 426.667;" xml:space="preserve">
<g>
	<g>
		<path d="M384,64h-67.627l-39.04-42.667h-128L110.293,64H42.667C19.093,64,0,83.093,0,106.667v256
			c0,23.573,19.093,42.667,42.667,42.667H384c23.573,0,42.667-19.093,42.667-42.667v-256C426.667,83.093,407.573,64,384,64z
			 M106.667,234.667c0-58.88,47.787-106.667,106.667-106.667c34.773,0,65.387,16.96,84.907,42.667h-84.907
			c-35.307,0-64,28.693-64,64c0,7.573,1.493,14.613,3.947,21.333H108.8C107.413,249.067,106.667,242.027,106.667,234.667z
			 M213.333,341.333c-34.773,0-65.387-16.853-84.8-42.667h84.8c35.307,0,64-28.693,64-64c0-7.467-1.493-14.613-3.947-21.333h44.48
			c1.387,6.933,2.133,13.973,2.133,21.333C320,293.547,272.213,341.333,213.333,341.333z"/>
	</g>
</g>
<g>
</g>
<g>
</g>
<g>
</g>
<g>
</g>
<g>
</g>
<g>
</g>
<g>
</g>
<g>
</g>
<g>
</g>
<g>
</g>
<g>
</g>
<g>
</g>
<g>
</g>
<g>
</g>
<g>
</g>
</svg>
