<svg width="375" height="350" viewBox="0 0 375 350" fill="none" xmlns="http://www.w3.org/2000/svg">
<g clip-path="url(#clip0)">
<path d="M407.574 350C386.058 346.909 365.365 344.244 345.497 342.005L353.353 329.534C350.705 328.767 339.067 335.876 339.067 335.876L349.381 299.619C336.06 300.878 329.281 337.916 329.281 337.916L314.4 325.315L321.603 339.438C260.794 333.281 208.276 330.862 164.102 330.583L170.827 319.909C168.178 319.142 156.54 326.251 156.54 326.251L166.854 289.994C153.533 291.252 146.755 328.291 146.755 328.291L131.874 315.69L139.503 330.649C102.47 331.089 72.2704 333.028 48.9605 335.289C55.7628 318.644 78.8645 302.889 78.8645 302.889C61.223 307.117 51.9684 314.296 47.1321 321.005C46.7624 300.414 49.2493 262.251 67.7262 220.072C67.7262 220.072 31.2535 285.07 35.8996 328.831L36.4549 336.601C5.54194 340.095 -10 343.807 -10 343.807L407.574 350Z" fill="#121212"/>
<path d="M100.054 120.063H99.3015V119.325H99.1549V120.063H98.4019V120.207H99.1549V120.946H99.3015V120.207H100.054V120.063Z" fill="#F2F2F2"/>
<path d="M150.863 83.1899H150.11V82.4517H149.963V83.1899H149.21V83.3342H149.963V84.0725H150.11V83.3342H150.863V83.1899Z" fill="#F2F2F2"/>
<path d="M107.489 149.238H106.737V148.5H106.59V149.238H105.837V149.382H106.59V150.12H106.737V149.382H107.489V149.238Z" fill="#F2F2F2"/>
<path d="M142.188 127.762H141.435V127.024H141.289V127.762H140.536V127.906H141.289V128.645H141.435V127.906H142.188V127.762Z" fill="#F2F2F2"/>
<path d="M191.757 141.134H191.004V140.396H190.858V141.134H190.104V141.278H190.858V142.016H191.004V141.278H191.757V141.134Z" fill="#F2F2F2"/>
<path d="M147.925 341.182C147.83 341.03 145.595 337.369 144.82 329.766C144.109 322.792 144.566 311.035 150.782 294.636C162.557 263.569 148.068 238.502 147.92 238.252L148.635 237.846C148.673 237.909 152.411 244.3 154.62 254.477C157.538 267.969 156.475 281.998 151.557 294.919C139.802 325.933 148.541 340.615 148.63 340.759L147.925 341.182Z" fill="#616161"/>
<path d="M143.321 236.428C146.287 236.428 148.691 234.07 148.691 231.161C148.691 228.251 146.287 225.893 143.321 225.893C140.355 225.893 137.951 228.251 137.951 231.161C137.951 234.07 140.355 236.428 143.321 236.428Z" fill="#838383"/>
<path d="M160.257 255.878C163.223 255.878 165.627 253.52 165.627 250.61C165.627 247.701 163.223 245.343 160.257 245.343C157.291 245.343 154.887 247.701 154.887 250.61C154.887 253.52 157.291 255.878 160.257 255.878Z" fill="#C5C5C5"/>
<path d="M148.691 268.844C151.657 268.844 154.061 266.486 154.061 263.577C154.061 260.668 151.657 258.309 148.691 258.309C145.725 258.309 143.321 260.668 143.321 263.577C143.321 266.486 145.725 268.844 148.691 268.844Z" fill="#838383"/>
<path d="M162.735 279.785C165.701 279.785 168.105 277.427 168.105 274.517C168.105 271.608 165.701 269.25 162.735 269.25C159.77 269.25 157.365 271.608 157.365 274.517C157.365 277.427 159.77 279.785 162.735 279.785Z" fill="#838383"/>
<path d="M144.56 296.803C147.526 296.803 149.93 294.445 149.93 291.536C149.93 288.627 147.526 286.268 144.56 286.268C141.594 286.268 139.19 288.627 139.19 291.536C139.19 294.445 141.594 296.803 144.56 296.803Z" fill="#C5C5C5"/>
<path d="M151.169 341.376C151.169 341.376 145.799 328.409 161.909 318.684L151.169 341.376Z" fill="#F2F2F2"/>
<path d="M144.565 341.14C144.565 341.14 142.121 327.352 123.206 327.47L144.565 341.14Z" fill="#F2F2F2"/>
<path d="M125.979 189.417C125.979 188.955 125.86 188.5 125.632 188.095C125.405 187.69 125.077 187.348 124.679 187.101C124.28 186.854 123.825 186.71 123.354 186.682C122.884 186.654 122.414 186.743 121.988 186.942C121.562 187.14 121.195 187.441 120.92 187.816C120.644 188.191 120.47 188.629 120.414 189.088C120.357 189.547 120.42 190.012 120.596 190.441C120.773 190.87 121.057 191.248 121.422 191.54L120.394 198.602H125.979L124.95 191.54C125.272 191.283 125.531 190.96 125.709 190.592C125.887 190.225 125.979 189.824 125.979 189.417V189.417Z" fill="white"/>
<path d="M277.545 76.9004C277.545 76.9004 268.333 68.7985 255.943 84.0675C243.554 99.3366 224.177 106.815 219.729 112.736C219.729 112.736 238.154 105.257 244.507 102.141C250.861 99.025 250.543 99.6482 250.543 99.6482C250.543 99.6482 241.966 105.569 240.378 111.49C238.789 117.41 240.06 122.396 237.201 128.317C234.342 134.237 291.84 132.368 291.84 132.368C291.84 132.368 297.558 122.708 295.97 112.736C294.381 102.764 295.334 78.1469 277.545 76.9004Z" fill="#121212"/>
<path d="M260.12 102.388C260.12 102.388 262.123 116.144 253.538 119.232C244.953 122.32 248.101 126.53 248.101 126.53L260.979 132.706L274.715 128.495L279.294 121.758C279.294 121.758 271.853 120.074 273.857 115.021C275.86 109.968 276.432 108.284 276.432 108.284L260.12 102.388Z" fill="#B28B67"/>
<path opacity="0.1" d="M260.12 102.388C260.12 102.388 262.123 116.144 253.538 119.232C244.953 122.32 248.101 126.53 248.101 126.53L260.979 132.706L274.715 128.495L279.294 121.758C279.294 121.758 271.853 120.074 273.857 115.021C275.86 109.968 276.432 108.284 276.432 108.284L260.12 102.388Z" fill="black"/>
<path d="M296.178 141.689C296.178 141.689 294.175 167.515 294.747 168.638C295.319 169.761 294.747 208.781 294.747 208.781C294.747 208.781 298.754 229.835 293.602 230.958C288.451 232.081 289.596 207.378 289.596 207.378L284.445 174.814L285.017 142.531L296.178 141.689Z" fill="#B28B67"/>
<path opacity="0.1" d="M296.178 141.689C296.178 141.689 294.175 167.515 294.747 168.638C295.319 169.761 294.747 208.781 294.747 208.781C294.747 208.781 298.754 229.835 293.602 230.958C288.451 232.081 289.596 207.378 289.596 207.378L284.445 174.814L285.017 142.531L296.178 141.689Z" fill="black"/>
<path d="M240.374 219.449C240.374 219.449 230.93 254.539 231.216 271.663C231.503 288.787 235.223 312.648 235.223 312.648C235.223 312.648 235.795 323.034 234.937 324.157C234.078 325.28 239.229 330.052 239.229 330.052L244.667 326.965L246.67 324.719V322.754C246.67 322.754 243.522 313.209 246.097 305.63C248.673 298.05 250.104 278.961 247.528 273.066L265.271 221.414L240.374 219.449Z" fill="#B28B67"/>
<path d="M239.802 325.561C239.802 325.561 236.367 321.35 234.078 322.754C231.789 324.157 228.068 333.702 228.068 333.702C228.068 333.702 215.19 345.773 224.348 346.334C233.506 346.896 237.512 343.808 238.657 341.562C239.801 339.316 250.39 333.421 250.39 333.421C250.39 333.421 249.245 322.754 247.528 322.473C245.811 322.192 243.236 326.684 243.236 326.684L239.802 325.561Z" fill="#121212"/>
<path d="M271.567 221.695V256.504C271.6 260.728 271.887 264.946 272.426 269.136C273.284 275.312 267.561 321.35 267.561 321.35L268.133 329.491L275.288 328.93L276.146 321.912L286.448 291.032C286.448 291.032 289.882 272.224 288.165 265.206C286.448 258.188 297.037 213.273 297.037 213.273L271.567 221.695Z" fill="#B28B67"/>
<path d="M265.844 327.526L267.963 327.074C267.963 327.074 269.564 323.596 271.567 324.438C272.977 325.076 274.312 325.861 275.55 326.779L276.432 328.368C276.432 328.368 278.435 332.579 281.011 335.386C283.586 338.193 286.448 344.369 282.156 344.931C277.863 345.492 272.139 345.773 270.422 344.369C268.705 342.966 269.85 340.72 268.133 340.158C266.416 339.597 264.985 337.913 265.271 337.351C265.557 336.79 265.844 327.526 265.844 327.526Z" fill="#121212"/>
<path d="M271.567 112.057C278.591 112.057 284.286 106.472 284.286 99.5812C284.286 92.6908 278.591 87.105 271.567 87.105C264.543 87.105 258.848 92.6908 258.848 99.5812C258.848 106.472 264.543 112.057 271.567 112.057Z" fill="#B28B67"/>
<path d="M247.528 121.477L251.308 120.183C251.308 120.183 249.818 122.6 257.831 124.004C265.844 125.408 274.142 125.904 277.862 121.305C277.862 121.305 279.294 120.635 281.297 122.6C283.3 124.565 284.445 124.004 284.445 124.004L283.014 131.303L280.152 144.777L276.432 154.883L265.844 152.637L254.397 144.496L250.104 133.548V123.442L247.528 121.477Z" fill="#838383"/>
<path d="M282.442 125.407L285.304 123.442C285.304 123.442 295.034 125.127 295.606 129.618L288.165 143.654C289.683 147.56 289.58 151.893 287.879 155.725C285.017 162.182 285.304 163.585 285.304 163.585L283.3 172.007L246.956 174.814C246.956 174.814 245.525 171.446 244.953 170.884C244.381 170.323 244.381 168.358 244.953 168.358C245.525 168.358 244.953 167.515 244.381 166.673C243.808 165.831 243.522 165.55 244.381 164.428C245.239 163.305 242.95 153.199 242.95 153.199V142.251L233.22 129.618C233.22 129.618 236.654 124.565 238.371 124.004C240.088 123.442 248.256 121.228 248.256 121.228L250.104 123.898L252.68 144.216L256.4 156.567L272.064 153.957L278.149 143.935L282.156 132.145L282.442 125.407Z" fill="#838383"/>
<path d="M293.316 127.934L295.606 129.618C295.606 129.618 297.609 145.339 297.037 146.461C296.464 147.584 286.448 148.707 286.162 148.146C285.876 147.584 293.316 127.934 293.316 127.934Z" fill="#838383"/>
<path d="M246.097 120.074L248.959 138.601C248.959 138.601 246.383 166.112 246.956 171.726L247.528 173.411C247.528 173.411 246.383 172.849 246.097 173.972C245.811 175.095 246.097 178.744 246.097 178.744C246.097 178.744 244.38 180.429 243.808 189.692C243.235 198.956 236.367 221.133 238.943 221.975C241.518 222.817 256.972 227.028 265.271 226.186C273.57 225.344 303.332 215.519 303.046 212.992C302.76 210.466 288.451 174.814 288.451 174.814C288.451 174.814 285.876 170.603 285.876 170.042C285.876 169.481 289.31 167.235 288.451 164.989C287.593 162.743 283.014 139.163 283.014 139.163L286.162 122.32L281.869 121.197L278.721 137.478C278.721 137.478 266.416 143.374 253.538 138.04L250.676 118.951L246.097 120.074Z" fill="#121212"/>
<path d="M259.866 90.6273C259.866 90.6273 281.043 104.944 286.767 98.4875C292.49 92.0309 276.751 86.4165 276.751 86.4165L263.587 85.0129L259.866 90.6273Z" fill="#121212"/>
<path d="M226.963 242.928C229.143 244.52 231.839 245.277 234.547 245.058C237.255 244.839 239.789 243.659 241.673 241.738C243.558 239.817 244.663 237.289 244.783 234.626C244.902 231.963 244.028 229.349 242.323 227.273C240.618 225.197 238.2 223.803 235.522 223.351C232.844 222.899 230.09 223.42 227.776 224.818C225.462 226.215 223.747 228.393 222.953 230.942C222.158 233.491 222.339 236.236 223.461 238.664L194.253 262.519L190.364 257.992L188.617 259.138L186.673 256.874L188.27 255.554L186.326 253.29L183.841 255.344L185.037 256.737L182.374 258.938L181.178 257.545L177.272 260.773L179.067 262.863L180.487 261.689L182.432 263.953L180.657 265.42L184.246 269.599L179.986 273.12L184.324 278.17L226.963 242.928ZM234.255 226.926C235.711 227.048 237.097 227.591 238.238 228.486C239.379 229.38 240.224 230.587 240.667 231.953C241.109 233.319 241.128 234.782 240.722 236.159C240.316 237.536 239.503 238.763 238.386 239.687C237.269 240.61 235.897 241.188 234.446 241.347C232.994 241.505 231.526 241.238 230.229 240.579C228.932 239.92 227.863 238.899 227.158 237.644C226.453 236.389 226.143 234.957 226.267 233.529C226.434 231.614 227.369 229.843 228.867 228.605C230.365 227.366 232.303 226.763 234.255 226.926V226.926Z" fill="#838383"/>
<path d="M231.216 145.058C231.216 145.058 233.22 170.884 232.647 172.007C232.075 173.13 232.647 212.15 232.647 212.15C232.647 212.15 228.641 233.204 233.792 234.327C238.943 235.45 237.798 210.746 237.798 210.746L242.95 178.183L242.377 145.9L231.216 145.058Z" fill="#B28B67"/>
<path d="M235.509 128.776L233.219 129.618C233.219 129.618 228.927 147.304 230.072 147.304C231.216 147.304 244.953 148.988 244.953 148.427C244.953 147.865 242.377 134.11 242.377 134.11L235.509 128.776Z" fill="#838383"/>
</g>
<path d="M90.6028 28.7035L75.0048 13.1259C72.3808 10.506 68.1256 10.5051 65.5005 13.1239C65.4999 13.1246 65.4992 13.1252 65.4986 13.1259L23.9722 54.5913C21.4527 57.1069 20.0373 60.5181 20.0373 64.0749V338.716" stroke="#616161" stroke-width="8"/>
<path d="M-1.80437 337.878H42.7191C44.1109 337.878 45.2393 339.004 45.2393 340.393V341.232C45.2393 342.621 44.1109 343.747 42.7191 343.747H-1.80437C-3.19624 343.747 -4.32456 342.621 -4.32456 341.232V340.393C-4.32456 339.004 -3.19624 337.878 -1.80437 337.878Z" fill="#121212"/>
<path fill-rule="evenodd" clip-rule="evenodd" d="M81.221 19.5638C70.3948 30.3686 70.3948 47.8867 81.221 58.6915L97.8534 75.2911L137.058 36.1634L120.426 19.5638C109.6 8.75902 92.0471 8.75902 81.221 19.5638Z" fill="#292929"/>
<path d="M120.653 59.1303C109.827 69.9351 99.3222 76.9689 97.1898 74.8406C95.0573 72.7124 102.105 62.2281 112.931 51.4233C123.757 40.6185 134.262 33.5848 136.395 35.713C138.527 37.8412 131.48 48.3255 120.653 59.1303Z" fill="#A4A4A4"/>
<defs>
<clipPath id="clip0">
<rect width="417.574" height="294.697" fill="white" transform="translate(-10 55.3031)"/>
</clipPath>
</defs>
</svg>
