<svg width="375" height="330" viewBox="0 0 375 330" fill="none" xmlns="http://www.w3.org/2000/svg">
<path d="M376 330C355.647 327.169 336.073 324.728 317.278 322.678L324.71 311.256C322.205 310.553 311.196 317.064 311.196 317.064L320.952 283.856C308.351 285.009 301.939 318.932 301.939 318.932L287.863 307.392L294.677 320.327C237.154 314.687 187.476 312.472 145.69 312.216L152.051 302.44C149.546 301.737 138.537 308.249 138.537 308.249L148.293 275.041C135.692 276.194 129.28 310.117 129.28 310.117L115.204 298.576L122.421 312.276C87.39 312.68 58.8228 314.455 36.7731 316.526C43.2076 301.281 65.0605 286.851 65.0605 286.851C48.3727 290.724 39.6183 297.299 35.0435 303.444C34.6938 284.585 37.0463 249.632 54.5242 211C54.5242 211 20.0233 270.531 24.4182 310.612L24.9436 317.728C-4.29826 320.929 -19 324.328 -19 324.328L376 330Z" fill="#121212"/>
<g clip-path="url(#clip0)">
<path fill-rule="evenodd" clip-rule="evenodd" d="M115.327 37.8593C112.005 33.9608 109.757 29.1832 110.133 23.8297C111.215 8.40481 132.687 11.7981 136.864 19.5833C141.041 27.3684 140.544 47.1161 135.146 48.5075C132.994 49.0624 128.408 47.7032 123.74 44.8899L126.67 65.6162H109.371L115.327 37.8593Z" fill="#B28B67"/>
<path fill-rule="evenodd" clip-rule="evenodd" d="M144.528 8.79073C144.169 7.53158 143.206 6.45349 141.907 6.13365C141.592 6.05607 141.267 6.02473 140.943 6.0378C140.827 6.04244 140.794 6.07595 140.74 5.99468C140.7 5.93442 140.699 5.78721 140.682 5.7164C140.631 5.4962 140.566 5.27874 140.487 5.06692C140.215 4.34445 139.758 3.70506 139.208 3.16644C138.178 2.15878 136.787 1.46334 135.342 1.33752C134.551 1.2687 133.766 1.39721 133.018 1.65452C132.631 1.78772 132.256 1.95358 131.89 2.13696C131.78 2.19215 131.423 2.46248 131.312 2.44496C131.19 2.42565 130.945 2.12242 130.846 2.04631C129.619 1.10544 128.105 0.73552 126.578 0.746833C124.853 0.759566 123.193 0.845715 121.755 1.89673C121.451 2.11925 121.161 2.36288 120.885 2.61939C120.74 2.75444 120.599 2.89455 120.465 3.04048C120.384 3.12852 120.305 3.21855 120.229 3.31099C120.1 3.46791 120.121 3.51946 119.94 3.40997C119.248 2.98955 118.446 2.79292 117.639 2.89218C117.159 2.95116 116.692 3.09515 116.249 3.28468C116.098 3.34919 115.749 3.60655 115.588 3.60906C115.429 3.61152 115.085 3.37296 114.92 3.31232C114.033 2.98472 113.076 2.90397 112.144 3.05534C111.181 3.21155 110.236 3.59543 109.421 4.12591C109.029 4.38109 108.687 4.66382 108.412 5.04325C108.293 5.20708 108.186 5.38037 108.052 5.53227C107.973 5.62121 107.817 5.71247 107.775 5.82503C107.8 5.75763 106.723 5.34222 106.621 5.31566C106.079 5.17418 105.528 5.20286 104.997 5.37743C104 5.7057 103.142 6.44185 102.437 7.1966C102.075 7.58427 101.758 8.01279 101.489 8.46933C101.36 8.68801 101.242 8.91295 101.134 9.14266C101.082 9.25395 101.047 9.39316 100.978 9.49341C100.89 9.62259 100.83 9.62505 100.669 9.68138C99.8528 9.96737 99.1086 10.4515 98.5419 11.1056C97.9687 11.7674 97.5967 12.5823 97.4408 13.4405C97.4316 13.4911 97.4262 13.7006 97.3966 13.728C97.356 13.7656 97.1918 13.749 97.1297 13.7563C96.9147 13.7815 96.7011 13.819 96.4905 13.8689C96.1021 13.9609 95.724 14.0961 95.3664 14.2731C93.9724 14.9628 92.9756 16.2558 92.4877 17.7108C91.9757 19.2377 91.9848 20.9871 92.5967 22.4855C92.6955 22.7275 92.8131 22.9624 92.9512 23.1847C93.036 23.3211 93.0634 23.3214 93.0083 23.4645C92.947 23.6238 92.8348 23.7785 92.7619 23.9341C92.5241 24.4419 92.3579 24.9804 92.2529 25.5304C92.0806 26.4327 91.9952 27.3808 92.1651 28.2899C92.2441 28.7121 92.3816 29.1247 92.5913 29.5007C92.6983 29.6924 92.8235 29.8742 92.9648 30.0424C93.0381 30.1297 93.1161 30.2131 93.1975 30.293C93.2442 30.3387 93.3053 30.3786 93.3449 30.4296C93.4416 30.5539 93.462 30.4517 93.4121 30.6342C93.3423 30.8894 93.1842 31.1412 93.0874 31.3895C92.9876 31.6454 92.8974 31.9048 92.8149 32.1667C92.6478 32.6972 92.5066 33.2372 92.4183 33.7865C92.2486 34.8412 92.2784 35.9649 92.7773 36.9329C92.9906 37.3469 93.2966 37.7101 93.6677 37.9927C93.8494 38.1309 94.0461 38.25 94.2525 38.3479C94.3586 38.3982 94.494 38.4198 94.5424 38.5224C94.5945 38.6327 94.5171 38.8517 94.4995 38.975C94.3461 40.0477 94.2692 41.174 94.5881 42.2252C94.8818 43.1934 95.5284 44.0483 96.368 44.6143C97.9966 45.7122 100.192 45.6503 101.903 44.7713C102.349 44.5422 102.767 44.2577 103.139 43.9221C104.087 45.1983 106.038 45.1579 107.423 44.7943C109.149 44.3413 110.534 43.141 111.332 41.564C112.424 42.8924 114.714 42.4614 115.47 41.0203C115.656 40.6676 115.765 40.2789 115.82 39.8856C115.848 39.6787 115.83 39.4701 115.851 39.2649C115.878 39.0034 116.053 38.7493 116.154 38.4964C116.349 38.0041 116.47 37.4956 116.476 36.9646C116.478 36.6873 116.443 36.4171 116.417 36.1421C116.393 35.8946 116.462 35.6639 116.501 35.4196C116.058 35.4925 115.519 35.3731 115.102 35.2447C114.692 35.1187 114.309 34.787 114.02 34.484C113.349 33.7804 112.94 32.8581 112.659 31.9401C112.044 29.9254 112.296 27.5082 114.323 26.4024C115.267 25.8873 118.095 25.889 119.219 26.1436C120.402 26.4113 121.742 29.0199 121.808 29.2651C121.849 29.4169 121.828 29.6047 121.968 29.7058C122.274 29.9281 122.779 29.5423 123.005 29.3519C123.395 29.0232 123.673 28.586 123.914 28.1427C124.439 27.1771 124.862 26.1416 125.161 25.0844C125.392 24.2694 125.539 23.429 125.84 22.6348C126.14 21.8445 126.613 21.1381 127.347 20.6904C128.146 20.2034 129.062 19.9469 129.94 19.6408C130.809 19.3375 131.664 18.9668 132.338 18.3232C132.486 18.1816 132.63 18.0312 132.749 17.8646C132.844 17.7331 132.937 17.4813 133.08 17.3979C133.303 17.2681 133.629 17.6055 133.822 17.728C134.774 18.3325 135.568 19.1755 136.208 20.0965C136.845 21.0124 137.367 21.8937 137.792 22.9165C138.107 23.675 138.304 24.6464 138.858 25.2681C139.105 25.5457 140.943 25.7136 141.539 25.4712C142.134 25.2289 142.802 24.5997 143.001 24.2053C143.206 23.8017 143.255 23.3583 143.167 22.9165C143.116 22.6565 143.011 22.4137 142.954 22.1584C142.905 21.9439 142.861 21.7411 142.757 21.5447C142.559 21.1723 142.221 20.9047 141.813 20.7928C142.238 20.4017 142.589 19.9338 142.832 19.4107C143.085 18.8673 143.299 18.2065 143.36 17.6101C143.409 17.1256 143.333 16.6238 143.068 16.2074C142.79 15.7707 142.297 15.4858 141.871 15.2134C142.522 14.7038 143.079 14.0841 143.538 13.3979C144.429 12.0635 144.98 10.3816 144.528 8.79073Z" fill="#292929"/>
</g>
<path fill-rule="evenodd" clip-rule="evenodd" d="M80.344 212.601C97.6349 217.437 112.553 219.855 125.098 219.855C137.643 219.855 149.296 216.131 160.056 208.684C143.135 203.72 129.2 201.238 118.251 201.238C107.302 201.238 94.6662 205.025 80.344 212.601Z" fill="#292929"/>
<path fill-rule="evenodd" clip-rule="evenodd" d="M140.066 226.826C139.9 226.575 139.759 226.303 139.647 226.007C137.336 219.895 100.316 153.957 96.6277 141.901H138.307C141.111 151.067 153.732 208.587 155.509 220.063C161.113 238.166 172.651 296.792 174.124 300.854C175.674 305.126 166.955 309.577 164.632 304.325C160.935 295.967 152.126 272.841 148.204 258.72C144.527 245.482 141.533 233.573 140.066 226.826Z" fill="#B28B67"/>
<path fill-rule="evenodd" clip-rule="evenodd" d="M105.967 234.877C89.0418 239.154 27.1337 246.888 22.8853 248.101C18.515 249.348 14.6831 240.34 20.085 238.389C28.6803 235.284 52.3644 228.11 66.7242 225.182C78.2743 222.828 88.8139 220.906 95.8899 219.781C95.2905 199.904 92.5502 152.204 94.3463 141.901H131.225C129.503 151.781 114.943 223.866 112.237 231.082C111.378 233.658 108.815 234.796 105.967 234.877Z" fill="#B28B67"/>
<path fill-rule="evenodd" clip-rule="evenodd" d="M20.4771 235.99C18.2172 235.57 16.5611 235.453 15.5086 235.638C14.2286 235.864 12.3983 236.406 10.0178 237.266C10.2797 238.751 12.6328 252.096 17.0772 277.301C20.7 277.735 22.451 276.807 22.33 274.517C22.209 272.228 22.1283 270.322 22.0879 268.8L27.1023 248.729C27.1988 248.343 26.964 247.952 26.5778 247.855C26.5712 247.854 26.5645 247.852 26.5579 247.851L23.4455 247.166C22.1114 245.262 21.33 243.661 21.1013 242.364C20.9154 241.31 21.0844 239.779 21.6084 237.772L21.6084 237.772C21.8094 237.001 21.3479 236.214 20.5776 236.013C20.5444 236.004 20.5109 235.997 20.4771 235.99Z" fill="#D5D5D5"/>
<path fill-rule="evenodd" clip-rule="evenodd" d="M161.986 303.644C161.179 305.797 160.776 307.408 160.776 308.476C160.776 309.776 160.993 311.673 161.426 314.166C162.934 314.166 176.485 314.166 202.079 314.166C203.135 310.674 202.525 308.788 200.249 308.51C197.973 308.231 196.082 307.98 194.577 307.755L175.682 299.332C175.318 299.17 174.892 299.333 174.73 299.697C174.727 299.703 174.724 299.709 174.722 299.716L173.507 302.662C171.4 303.645 169.688 304.136 168.371 304.136C167.3 304.136 165.822 303.704 163.936 302.84L163.936 302.84C163.213 302.508 162.357 302.826 162.025 303.549C162.011 303.581 161.998 303.612 161.986 303.644Z" fill="#D5D5D5"/>
<path fill-rule="evenodd" clip-rule="evenodd" d="M94.4648 141.901C110.716 137.252 126.092 137.252 140.594 141.901C145.64 164.921 157.899 174.058 160.055 209.351C135.549 221.527 105.276 200.666 80.0494 212.541C72.8416 195.931 82.9324 155.931 94.4648 141.901Z" fill="#292929"/>
<path fill-rule="evenodd" clip-rule="evenodd" d="M161.871 108.366L190.329 104.484C196.022 101.318 201.259 99.174 206.04 98.0531C207.386 98.0139 209.526 98.503 206.337 101.161C203.149 103.82 199.913 106.76 200.481 108.179C201.049 109.598 204.015 109.07 204.506 111.252C204.834 112.707 200.021 112.943 190.068 111.961L166.976 121.116L161.871 108.366ZM72.4728 114.953L88.2559 115.012C70.9493 153.958 61.9254 174.35 61.1842 176.187C59.5163 180.32 63.0457 186.615 64.555 189.998C59.6393 192.198 60.1631 184.052 53.962 186.936C48.302 189.57 43.9964 194.341 37.4571 190.306C36.6531 189.81 35.7721 187.942 37.9008 186.482C43.2041 182.846 50.8464 176.482 51.879 174.387C53.2871 171.53 60.1517 151.719 72.4728 114.953Z" fill="#B28B67"/>
<path fill-rule="evenodd" clip-rule="evenodd" d="M115.705 64.8952L128.062 65.7185C131.106 93.2529 147.683 110.645 184.799 104.757L189.73 140.215C155.04 144.698 124.616 130.81 118.381 93.2061C116.767 83.4717 115.492 73.3411 115.705 64.8952Z" fill="#121212"/>
<path fill-rule="evenodd" clip-rule="evenodd" d="M109.608 61.3031L128.331 65.5912C128.331 97.7948 138.59 118.341 143.851 142.018H93.2846C92.5722 150.2 92.1348 158.609 91.9069 167.245H54.0442C62.6241 121.594 80.7333 86.2765 108.372 61.2916H109.598L109.608 61.3031Z" fill="#121212"/>
<path fill-rule="evenodd" clip-rule="evenodd" d="M101.263 96.0754C99.9594 116.143 100.726 131.457 103.562 142.018H93.2844C94.6955 125.811 97.1854 110.496 101.263 96.0754V96.0754Z" fill="black" fill-opacity="0.1"/>
<defs>
<clipPath id="clip0">
<rect width="52.6165" height="64.8696" fill="white" transform="translate(92.0728 0.746582)"/>
</clipPath>
</defs>
</svg>
